# xmcd
#
# Track frame offsets:
#	150
#	19757
#	33635
#	50342
#	66480
#	81126
#	96046
#
# Disc length: 1532 seconds
#
# Revision: 1
# Processed by: cddbd v1.5.2PL0 Copyright (c) Steve Scherf et al.
# Submitted via: audiograbber 1.83.01
#
DISCID=5605fa07
DTITLE=Dylan Scott - A Trnute to Keith WHitley
DYEAR=2019
DGENRE=Country
TTITLE0=Don't Close Your Eyes
TTITLE1=I'm Over You
TTITLE2=When You Say Nothing At All
TTITLE3=Ten Feet Away
TTITLE4=Miami My Amy
TTITLE5=Between An Old Memory And Me
TTITLE6=Tell Lorrie I Love Her (w. Lorrie Morgan)
EXTD=
EXTT0=
EXTT1=
EXTT2=
EXTT3=
EXTT4=
EXTT5=
EXTT6=
PLAYORDER=
